HIERARCHY
ROOT hip
{
  OFFSET 0 0 0
  CHANNELS 6 Xposition Yposition Zposition Zrotation Yrotation Xrotation
  JOINT abdomen
  {
    OFFSET 0 20.6881 -0.73152
    CHANNELS 3 Zrotation Xrotation Yrotation
    JOINT chest
    {
      OFFSET 0 11.7043 -0.48768
      CHANNELS 3 Zrotation Xrotation Yrotation
      JOINT neck
      {
        OFFSET 0 22.1894 -2.19456
        CHANNELS 3 Zrotation Xrotation Yrotation
        JOINT head
        {
          OFFSET -0.24384 7.07133 1.2192
          CHANNELS 3 Zrotation Xrotation Yrotation
          JOINT leftEye
          {
            OFFSET 4.14528 8.04674 8.04672
            CHANNELS 3 Zrotation Xrotation Yrotation
            End Site
            {
              OFFSET 1 0 0
            }
          }
          JOINT rightEye
          {
            OFFSET -3.6576 8.04674 8.04672
            CHANNELS 3 Zrotation Xrotation Yrotation
            End Site
            {
              OFFSET 1 0 0
            }
          }
        }
      }
      JOINT rCollar
      {
        OFFSET -2.68224 19.2634 -4.8768
        CHANNELS 3 Zrotation Xrotation Yrotation
        JOINT rShldr
        {
          OFFSET -8.77824 -1.95073 1.46304
          CHANNELS 3 Zrotation Xrotation Yrotation
          JOINT rForeArm
          {
            OFFSET -28.1742 -1.7115 0.48768
            CHANNELS 3 Zrotation Xrotation Yrotation
            JOINT rHand
            {
              OFFSET -22.5879 0.773209 7.07136
              CHANNELS 3 Zrotation Xrotation Yrotation
              JOINT rThumb1
              {
                OFFSET -1.2192 -0.487915 3.41376
                CHANNELS 3 Zrotation Xrotation Yrotation
                JOINT rThumb2
                {
                  OFFSET -3.37035 -0.52449 3.41376
                  CHANNELS 3 Zrotation Xrotation Yrotation
                  End Site
                  {
                    OFFSET -1.78271 -1.18214 1.43049
                  }
                }
              }
              JOINT rIndex1
              {
                OFFSET -7.75947 0.938293 5.60832
                CHANNELS 3 Zrotation Xrotation Yrotation
                JOINT rIndex2
                {
                  OFFSET -2.54057 -0.884171 1.56538
                  CHANNELS 3 Zrotation Xrotation Yrotation
                  End Site
                  {
                    OFFSET -1.62519 -0.234802 1.16502
                  }
                }
              }
              JOINT rMid1
              {
                OFFSET -8.24714 1.18213 3.41376
                CHANNELS 3 Zrotation Xrotation Yrotation
                JOINT rMid2
                {
                  OFFSET -3.10165 -0.590103 1.0647
                  CHANNELS 3 Zrotation Xrotation Yrotation
                  End Site
                  {
                    OFFSET -2.48547 -0.328903 0.83742
                  }
                }
              }
              JOINT rRing1
              {
                OFFSET -8.82822 0.546677 1.51678
                CHANNELS 3 Zrotation Xrotation Yrotation
                JOINT rRing2
                {
                  OFFSET -2.60934 -0.819778 -0.0198488
                  CHANNELS 3 Zrotation Xrotation Yrotation
                  End Site
                  {
                    OFFSET -2.33842 -0.294052 0.168128
                  }
                }
              }
              JOINT rPinky1
              {
                OFFSET -8.27202 -0.0477905 -0.4584
                CHANNELS 3 Zrotation Xrotation Yrotation
                JOINT rPinky2
                {
                  OFFSET -1.82734 -0.647385 -0.700984
                  CHANNELS 3 Zrotation Xrotation Yrotation
                  End Site
                  {
                    OFFSET -1.69225 -0.51767 -0.607171
                  }
                }
              }
            }
          }
        }
      }
      JOINT lCollar
      {
        OFFSET 2.68224 19.2634 -4.8768
        CHANNELS 3 Zrotation Xrotation Yrotation
        JOINT lShldr
        {
          OFFSET 8.77824 -1.95073 1.46304
          CHANNELS 3 Zrotation Xrotation Yrotation
          JOINT lForeArm
          {
            OFFSET 28.1742 -1.7115 0.48768
            CHANNELS 3 Zrotation Xrotation Yrotation
            JOINT lHand
            {
              OFFSET 22.5879 0.773209 7.07136
              CHANNELS 3 Zrotation Xrotation Yrotation
              JOINT lThumb1
              {
                OFFSET 1.2192 -0.487915 3.41376
                CHANNELS 3 Zrotation Xrotation Yrotation
                JOINT lThumb2
                {
                  OFFSET 3.37035 -0.52449 3.41376
                  CHANNELS 3 Zrotation Xrotation Yrotation
                  End Site
                  {
                    OFFSET 1.78271 -1.18214 1.43049
                  }
                }
              }
              JOINT lIndex1
              {
                OFFSET 7.75947 0.938293 5.60832
                CHANNELS 3 Zrotation Xrotation Yrotation
                JOINT lIndex2
                {
                  OFFSET 2.54057 -0.884171 1.56538
                  CHANNELS 3 Zrotation Xrotation Yrotation
                  End Site
                  {
                    OFFSET 1.62519 -0.234802 1.16502
                  }
                }
              }
              JOINT lMid1
              {
                OFFSET 8.24714 1.18213 3.41376
                CHANNELS 3 Zrotation Xrotation Yrotation
                JOINT lMid2
                {
                  OFFSET 3.10165 -0.590103 1.0647
                  CHANNELS 3 Zrotation Xrotation Yrotation
                  End Site
                  {
                    OFFSET 2.48547 -0.328903 0.83742
                  }
                }
              }
              JOINT lRing1
              {
                OFFSET 8.82822 0.546677 1.51678
                CHANNELS 3 Zrotation Xrotation Yrotation
                JOINT lRing2
                {
                  OFFSET 2.60934 -0.819778 -0.0198488
                  CHANNELS 3 Zrotation Xrotation Yrotation
                  End Site
                  {
                    OFFSET 2.33842 -0.294052 0.168128
                  }
                }
              }
              JOINT lPinky1
              {
                OFFSET 8.27202 -0.0477905 -0.4584
                CHANNELS 3 Zrotation Xrotation Yrotation
                JOINT lPinky2
                {
                  OFFSET 1.82734 -0.647385 -0.700984
                  CHANNELS 3 Zrotation Xrotation Yrotation
                  End Site
                  {
                    OFFSET 1.69225 -0.51767 -0.607171
                  }
                }
              }
            }
          }
        }
      }
    }
  }
  JOINT rButtock
  {
    OFFSET -8.77824 4.35084 1.2192
    CHANNELS 3 Zrotation Xrotation Yrotation
    JOINT rThigh
    {
      OFFSET 0 -1.70687 -2.19456
      CHANNELS 3 Zrotation Xrotation Yrotation
      JOINT rShin
      {
        OFFSET 0 -36.8199 0.73152
        CHANNELS 3 Zrotation Xrotation Yrotation
        JOINT rFoot
        {
          OFFSET 0.73152 -45.1104 -5.12064
          CHANNELS 3 Zrotation Xrotation Yrotation
          End Site
          {
            OFFSET -1.1221 -3.69964 12.103
          }
        }
      }
    }
  }
  JOINT lButtock
  {
    OFFSET 8.77824 4.35084 1.2192
    CHANNELS 3 Zrotation Xrotation Yrotation
    JOINT lThigh
    {
      OFFSET 0 -1.70687 -2.19456
      CHANNELS 3 Zrotation Xrotation Yrotation
      JOINT lShin
      {
        OFFSET 0 -36.8199 0.73152
        CHANNELS 3 Zrotation Xrotation Yrotation
        JOINT lFoot
        {
          OFFSET -0.73152 -45.1104 -5.12064
          CHANNELS 3 Zrotation Xrotation Yrotation
          End Site
          {
            OFFSET 1.1221 -3.69964 12.103
          }
        }
      }
    }
  }
}
MOTION
Frames:	4
Frame Time:	0.00833333
2.2179 84.3996 -71.7241 0.0 0.0 0.0 -0.991223 -0.00434167 -0.0274291 -0.273429 -0.00447549 -0.0473707 -2.14145e-14 7.95139e-16 1.49089e-16 -6.46516e-14 9.54166e-15 4.17758e-16 -0.0 0.0 0.0 -0.0 0.0 0.0 -1.05375e-14 -3.35837e-17 1.49089e-16 -2.22719e-13 -8.44835e-16 2.18663e-15 -3.87198e-12 1.13367e-12 8.5875e-14 -4.43202e-11 -1.28979e-12 2.25819e-13 -1.04546e-10 -3.37016e-13 6.96541e-13 -1.80555e-10 -5.82042e-13 1.1943e-12 -1.04542e-10 -3.35549e-13 6.80639e-13 7.73091 5.47488 0.417314 -1.04548e-10 -3.37536e-13 6.99722e-13 2.90554 0.965183 0.102902 -1.04545e-10 -3.37139e-13 6.96541e-13 10.2786 0.731801 0.0259123 -1.04554e-10 -3.35151e-13 7.06083e-13 2.22167 -0.733487 -0.20892 -1.06338e-14 -3.22249e-17 -4.96962e-17 -2.26661e-13 -4.53478e-16 0.0 -3.87441e-12 -1.17999e-12 5.725e-14 -4.43202e-11 1.03495e-12 2.63986e-13 -1.04546e-10 -3.16263e-13 6.96541e-13 -1.80534e-10 -5.50236e-13 1.20941e-12 -1.04552e-10 -3.16068e-13 7.09264e-13 -7.73091 5.47488 -0.417314 -1.04545e-10 -3.16664e-13 6.96541e-13 -2.90554 0.965183 -0.102902 -1.0455e-10 -3.16167e-13 6.98132e-13 -10.2786 0.731801 -0.0259123 -1.04541e-10 -3.12887e-13 6.83819e-13 -2.22167 -0.733487 0.20892 -2.03217e-16 0.0 -3.88251e-19 -0.25381 -1.9193 -0.0128545 -0.00928907 -2.07855 -0.0767322 -0.497342 3.99655 0.138106 2.03217e-16 0.0 3.88251e-19 -1.25491 -5.46676 0.109737 -9.48254e-05 4.34722 -0.0243717 0.511636 1.11837 -0.0811238
1.79235 83.0868 -73.2086 -1.3427 -1.1831 6.0967 -0.4966 0.0685484 -0.544816 0.0969005 1.39027 -0.208517 -0.512426 0.98335 0.207863 -0.0843656 4.63714 0.505492 -0.0 0.0 0.0 -0.0 0.0 0.0 -6.25587e-16 -5.1845e-14 1.65228e-14 22.0897 3.72772 2.36575 -3.4342 -1.43126 5.49598 0.150592 8.6264 1.16332 -6.51663e-10 1.93467e-10 2.86064e-10 -1.11786e-09 3.21545e-10 5.08134e-10 -6.51659e-10 1.93468e-10 2.86051e-10 7.73091 5.47488 0.417314 -6.51664e-10 1.93465e-10 2.8607e-10 2.90554 0.965183 0.102902 -6.51662e-10 1.93466e-10 2.86065e-10 10.2786 0.731801 0.0259123 -6.5167e-10 1.93468e-10 2.86074e-10 2.22167 -0.733487 -0.20892 -7.06164e-16 -5.1844e-14 1.62833e-14 -22.1356 9.90403 -4.14756 2.76948 -1.06375 -4.51409 -0.00251718 -1.11307 0.156325 7.0564e-12 -4.30912e-10 -5.83176e-10 1.24712e-11 -7.44862e-10 -1.00732e-09 7.05042e-12 -4.30912e-10 -5.83164e-10 -7.73091 5.47488 -0.417314 7.05781e-12 -4.30912e-10 -5.83175e-10 -2.90554 0.965183 -0.102902 7.05128e-12 -4.30911e-10 -5.83173e-10 -10.2786 0.731801 -0.0259123 7.06003e-12 -4.3091e-10 -5.83183e-10 -2.22167 -0.733487 0.20892 -2.03217e-16 0.0 -3.88251e-19 -0.680154 -5.59419 -1.07395 -0.0122649 3.6627 0.0149893 -0.483359 0.580189 -0.0357479 2.03217e-16 0.0 3.88251e-19 -0.184166 -8.29324 2.02986 -0.012876 8.66274 -0.0977775 0.576338 -1.46334 1.0833
1.79071 83.0871 -73.2076 -1.354 -1.1733 6.0922 0.0278836 0.145308 -1.09223 0.497038 2.86522 -0.379327 -1.06184 2.02229 0.427654 -0.263178 9.5384 1.05059 -0.0 0.0 0.0 -0.0 0.0 0.0 9.59442e-15 -1.13024e-13 3.57284e-14 45.1047 7.64575 4.90004 -6.76757 -2.90041 11.317 -0.0883146 17.7346 2.48428 -1.28265e-09 4.15258e-10 6.16101e-10 -2.19881e-09 6.90104e-10 1.09428e-09 -1.28264e-09 4.15257e-10 6.16091e-10 7.73091 5.47488 0.417314 -1.28265e-09 4.15254e-10 6.16108e-10 2.90554 0.965183 0.102902 -1.28264e-09 4.15255e-10 6.16103e-10 10.2786 0.731801 0.0259123 -1.28265e-09 4.15257e-10 6.1611e-10 2.22167 -0.733487 -0.20892 9.53302e-15 -1.13023e-13 3.54458e-14 -43.8908 20.195 -8.95989 5.51504 -2.16599 -9.29022 0.00142876 -2.28768 0.321493 1.41318e-10 -9.15677e-10 -1.2502e-09 2.44658e-10 -1.58278e-09 -2.15945e-09 1.41312e-10 -9.15677e-10 -1.25019e-09 -7.73091 5.47488 -0.417314 1.4132e-10 -9.15676e-10 -1.2502e-09 -2.90554 0.965183 -0.102902 1.41312e-10 -9.15676e-10 -1.25019e-09 -10.2786 0.731801 -0.0259123 1.4132e-10 -9.15676e-10 -1.2502e-09 -2.22167 -0.733487 0.20892 -2.03217e-16 0.0 -3.88251e-19 -1.28084 -9.4745 -2.21545 -0.0355749 9.73183 0.113448 -0.491038 -3.03135 -0.218899 2.03217e-16 0.0 3.88251e-19 1.15753 -11.2637 4.09603 -0.0140424 13.2246 -0.177875 0.759054 -4.18986 2.31976
1.79022 83.0881 -73.2044 -1.3573 -1.1684 6.0781 0.496594 0.214256 -1.5796 0.861153 4.17961 -0.532041 -1.55871 2.94989 0.624326 -0.504842 13.907 1.55717 -0.0 0.0 0.0 -0.0 0.0 0.0 1.91981e-14 -1.55468e-13 4.92703e-14 65.3332 11.1062 7.2181 -9.48967 -4.13603 16.5271 -0.697513 25.8341 3.83416 -1.7459e-09 5.81075e-10 8.568e-10 -2.99247e-09 9.658e-10 1.52201e-09 -1.74589e-09 5.81074e-10 8.56793e-10 7.73091 5.47488 0.417314 -1.7459e-09 5.8107e-10 8.56809e-10 2.90554 0.965183 0.102902 -1.7459e-09 5.81072e-10 8.56803e-10 10.2786 0.731801 0.0259123 -1.7459e-09 5.81074e-10 8.5681e-10 2.22167 -0.733487 -0.20892 1.91491e-14 -1.55468e-13 4.89492e-14 -61.6217 29.0437 -14.0537 7.81017 -3.11212 -13.5603 0.010696 -3.33911 0.469684 2.30261e-10 -1.2921e-09 -1.75092e-09 3.98481e-10 -2.23348e-09 -3.02437e-09 2.30255e-10 -1.2921e-09 -1.75091e-09 -7.73091 5.47488 -0.417314 2.30264e-10 -1.2921e-09 -1.75092e-09 -2.90554 0.965183 -0.102902 2.30254e-10 -1.2921e-09 -1.75092e-09 -10.2786 0.731801 -0.0259123 2.30263e-10 -1.2921e-09 -1.75092e-09 -2.22167 -0.733487 0.20892 -2.03217e-16 0.0 -3.88251e-19 -1.95042 -12.9266 -3.26359 -0.0745668 15.1451 0.205373 -0.517669 -6.25241 -0.385069 2.03217e-16 0.0 3.88251e-19 2.54056 -13.8885 5.98293 -0.00377122 17.2937 -0.252812 1.022 -6.61576 3.43394
